<?xml version="1.0" encoding="utf-8"?>
<svg version="1.1" xmlns:xlink="http://www.w3.org/1999/xlink" width="10px" height="40px" preserveAspectRatio="xMidYMin meet" viewBox="916 1205  8 40" xmlns="http://www.w3.org/2000/svg">
  <path d="M 444 1210  L 915 1210  A 5 5 0 0 1 920 1215 L 920 1235  A 5 5 0 0 0 925 1240 L 1705 1240  A 5 5 0 0 0 1710 1235 L 1710 1192  A 5 5 0 0 1 1715 1187 L 1720 1187  " stroke-width="2" stroke="#6666ff" fill="none" />
  <path d="M 1714.89289321881 1182.70710678119  L 1719.18578643763 1187  L 1714.89289321881 1191.29289321881  L 1716.30710678119 1192.70710678119  L 1721.30710678119 1187.70710678119  L 1722.01421356237 1187  L 1721.30710678119 1186.29289321881  L 1716.30710678119 1181.29289321881  L 1714.89289321881 1182.70710678119  Z " fill-rule="nonzero" fill="#6666ff" stroke="none" />
</svg>