<?xml version="1.0" encoding="utf-8"?>
<svg version="1.1" xmlns:xlink="http://www.w3.org/1999/xlink" width="24px" height="32px" xmlns="http://www.w3.org/2000/svg">
  <g transform="matrix(1 0 0 1 -993 -249 )">
    <path d="M 1005 279.073856936707  C 1000.6 271.81468119182  994 267.459175744887  994 260.2  C 994 256.411428571429  996.2 250  1005 250  C 1013.8 250  1016 256.411428571429  1016 260.2  C 1016 267.459175744887  1009.4 271.81468119182  1005 279.073856936707  Z " fill-rule="nonzero" fill="#0000ff" stroke="none" fill-opacity="0.6" />
    <path d="M 1005 281  C 1000.2 273  993 268.2  993 260.2  C 993 256.04  995.4 249  1005 249  C 1014.6 249  1017 256.04  1017 260.2  C 1017 268.2  1009.8 273  1005 281  Z M 1005 279.073856936707  C 1009.4 271.81468119182  1016 267.459175744887  1016 260.2  C 1016 256.411428571429  1013.8 250  1005 250  C 996.2 250  994 256.411428571429  994 260.2  C 994 267.459175744887  1000.6 271.81468119182  1005 279.073856936707  Z " fill-rule="nonzero" fill="#0000ff" stroke="none" fill-opacity="0.6" />
  </g>
</svg>