<?xml version="1.0" encoding="utf-8"?>
<svg version="1.1" xmlns:xlink="http://www.w3.org/1999/xlink" width="1064px" height="32px" xmlns="http://www.w3.org/2000/svg">
  <g transform="matrix(1 0 0 1 -317 -1010 )">
    <path d="M 318 1014  A 3 3 0 0 1 321 1011 L 1377 1011  A 3 3 0 0 1 1380 1014 L 1380 1038  A 3 3 0 0 1 1377 1041 L 321 1041  A 3 3 0 0 1 318 1038 L 318 1014  Z " fill-rule="nonzero" fill="#ffffff" stroke="none" />
    <path d="M 317.5 1014  A 3.5 3.5 0 0 1 321 1010.5 L 1377 1010.5  A 3.5 3.5 0 0 1 1380.5 1014 L 1380.5 1038  A 3.5 3.5 0 0 1 1377 1041.5 L 321 1041.5  A 3.5 3.5 0 0 1 317.5 1038 L 317.5 1014  Z " stroke-width="1" stroke-dasharray="9,4" stroke="#d9d9d9" fill="none" stroke-dashoffset="0.5" />
  </g>
</svg>